:SAMPLES-PER-SECOND 30
:FRAME-RANGE 1-2643
:FULLY-SPECIFIED
:DEGREES
2313
root  -60.2063 37.6991 -1.07565 -179.857 34.6652 176.223
RightUpLeg  -9.73123 -4.0405 -4.42419
RightLeg  61.8322 2.67247 4.88809
RightFoot  -2.25815 -0.720264 8.85612
RightToes  5.38607e-012 1.2921e-014 -6.02303e-014
Spine  1.1472 -0.390881 -4.776
Spine1  7.68552 0.619093 -4.90185
HEad  10.7431 -43.0779 9.20766
LeftShoulder1  0.963542 -0.387644 -19.8623
LeftArm  -6.45935 8.81877 -46.3103
LeftForeArm  38.2438 3.16768 -10.9138
LeftHand  -0.026351 4.61973 0.209064
RightShoulder  1.71735 2.11916 25.6072
RightArm  -24.322 2.66401 59.8055
RightForeArm  72.3425 -2.69049 4.25552
RightHand  0.112645 -6.30061 -16.356
LeftUpLeg  -26.1252 -5.37345 4.10986
LeftLeg  25.408 -2.1036 -0.747139
LeftFoot  -2.92756 0.574099 -7.55983
LeftToes  -4.79707e-012 -5.93756e-011 -7.55542e-012
2314
root  -59.6148 37.8898 -2.09886 -179.956 36.0018 176.022
RightUpLeg  -14.7568 -7.09455 -4.6543
RightLeg  67.8735 0.167946 -0.259944
RightFoot  5.12458 -0.978936 7.00032
RightToes  5.38607e-012 1.2921e-014 -6.02303e-014
Spine  1.62283 -0.43017 -5.25703
Spine1  7.16946 0.515357 -4.92456
HEad  10.7621 -41.7215 9.75033
LeftShoulder1  1.02266 -0.600241 -19.9639
LeftArm  -6.03802 7.3129 -46.4906
LeftForeArm  38.2269 2.20613 -11.0466
LeftHand  -0.0360907 4.43676 1.63883
RightShoulder  1.72699 2.1058 25.8755
RightArm  -24.9193 2.10076 60.0216
RightForeArm  72.2576 -3.30923 3.93431
RightHand  0.130963 -6.38834 -16.9746
LeftUpLeg  -24.1567 -3.73352 3.48035
LeftLeg  25.9878 -2.25194 -0.848621
LeftFoot  -4.67528 0.39627 -6.31962
LeftToes  -4.79707e-012 -5.93756e-011 -7.55542e-012
2315
root  -58.9879 38.0558 -3.0231 -179.87 37.5099 176.058
RightUpLeg  -18.7181 -9.5339 -4.15787
RightLeg  71.039 -1.2088 -4.81134
RightFoot  2.8255 -0.665488 5.5063
RightToes  5.38607e-012 1.2921e-014 -6.02303e-014
Spine  2.00602 -0.58857 -5.86096
Spine1  6.97028 0.217406 -4.83729
HEad  10.3844 -39.9065 10.6389
LeftShoulder1  1.06727 -0.788931 -19.8392
LeftArm  -6.13223 5.72507 -46.8281
LeftForeArm  38.1755 1.39741 -10.972
LeftHand  -0.0387798 4.32157 1.83988
RightShoulder  1.71131 2.04499 25.9464
RightArm  -25.0512 1.57997 60.325
RightForeArm  71.0534 -3.41678 3.96141
RightHand  0.121147 -6.28951 -17.4693
LeftUpLeg  -22.1848 -2.7308 3.37291
LeftLeg  26.299 -1.78672 -0.608077
LeftFoot  -6.45137 0.290249 -5.88922
LeftToes  -4.79707e-012 -5.93756e-011 -7.55542e-012
2316
root  -58.3336 38.2109 -3.89047 -179.479 38.6183 176.044
RightUpLeg  -22.2451 -11.0566 -3.49098
RightLeg  71.0145 -1.13066 -4.5473
RightFoot  -1.17149 -0.497892 5.50042
RightToes  5.38607e-012 1.2921e-014 -6.02303e-014
Spine  2.30539 -1.02865 -6.80102
Spine1  6.46699 -0.46515 -4.16517
HEad  10.1479 -38.0998 11.1749
LeftShoulder1  1.1515 -1.17448 -19.4512
LeftArm  -6.24489 4.14982 -47.2563
LeftForeArm  38.2897 0.825674 -10.8851
LeftHand  -0.0375754 4.18756 2.04516
RightShoulder  1.64922 1.84756 25.9605
RightArm  -25.1931 1.21627 60.5222
RightForeArm  70.7813 -3.18486 3.97009
RightHand  0.102171 -6.18274 -17.0885
LeftUpLeg  -20.3869 -1.85801 3.28492
LeftLeg  26.0137 -1.55753 -0.471683
LeftFoot  -8.08681 0.213096 -5.79271
LeftToes  -4.79707e-012 -5.93756e-011 -7.55542e-012
2317
root  -57.6269 38.3385 -4.70806 -178.915 39.4723 176.366
RightUpLeg  -25.2067 -11.995 -2.31913
RightLeg  68.2228 -0.447397 -1.96535
RightFoot  -3.49746 -0.339535 4.60146
RightToes  5.38607e-012 1.2921e-014 -6.02303e-014
Spine  2.72863 -1.61907 -7.57093
Spine1  5.88115 -1.33074 -3.25968
HEad  9.94469 -36.2928 11.392
LeftShoulder1  1.27893 -1.74812 -19.0278
LeftArm  -6.22193 2.59082 -47.6059
LeftForeArm  38.6656 0.263761 -10.8532
LeftHand  -0.0400977 4.21645 1.81998
RightShoulder  1.59423 1.70564 25.7546
RightArm  -25.2298 0.846815 60.6466
RightForeArm  71.0728 -2.71634 4.04806
RightHand  0.0977037 -6.16911 -16.7757
LeftUpLeg  -18.5786 -1.01679 3.57653
LeftLeg  25.6742 -1.54384 -0.449528
LeftFoot  -9.6259 0.142668 -5.67541
LeftToes  -4.79707e-012 -5.93756e-011 -7.55542e-012
2318
root  -56.902 38.3998 -5.46931 -178.485 40.4735 175.999
RightUpLeg  -27.9151 -12.8265 -1.41128
RightLeg  63.5704 -0.25306 -1.12376
RightFoot  -7.2669 -0.24392 5.46254
RightToes  5.38607e-012 1.2921e-014 -6.02303e-014
Spine  3.05825 -2.13746 -8.67755
Spine1  5.19075 -2.00964 -2.55347
HEad  9.1573 -34.5552 11.8782
LeftShoulder1  1.42025 -2.38091 -18.6739
LeftArm  -6.34933 0.780521 -47.725
LeftForeArm  38.8573 -0.357714 -10.7802
LeftHand  -0.0399215 4.18835 1.81067
RightShoulder  1.55149 1.58165 25.6787
RightArm  -24.9751 0.490398 60.4076
RightForeArm  70.7362 -1.90738 4.33874
RightHand  0.116861 -6.30507 -16.7488
LeftUpLeg  -17.043 -0.0560499 3.3748
LeftLeg  25.1434 -1.48248 -0.397032
LeftFoot  -11.09 0.079271 -5.86039
LeftToes  -4.79707e-012 -5.93756e-011 -7.55542e-012
2319
root  -56.1358 38.4746 -6.20525 -178.005 41.8716 175.899
RightUpLeg  -29.9289 -13.355 0.0226573
RightLeg  56.9501 -1.08219 -2.22636
RightFoot  -9.44142 -0.146972 4.9909
RightToes  5.38607e-012 1.2921e-014 -6.02303e-014
Spine  3.22589 -2.47416 -8.93794
Spine1  4.82718 -2.31907 -2.23463
HEad  7.84326 -33.0436 12.6292
LeftShoulder1  1.5044 -2.80768 -18.2792
LeftArm  -6.64197 -1.66108 -47.9646
LeftForeArm  38.5902 -0.309587 -10.6468
LeftHand  -0.0399613 4.31755 1.97677
RightShoulder  1.5325 1.5299 25.6207
RightArm  -24.9014 0.32439 60.1308
RightForeArm  70.241 -1.33224 4.48143
RightHand  0.125772 -6.36914 -16.7264
LeftUpLeg  -15.0551 1.7328 3.44591
LeftLeg  24.1294 -1.91305 -0.493661
LeftFoot  -12.4164 0.0185777 -5.94044
LeftToes  -4.79707e-012 -5.93756e-011 -7.55542e-012
2320
root  -55.3243 38.5717 -6.90283 -177.434 43.5464 175.898
RightUpLeg  -31.1941 -12.8943 1.64585
RightLeg  48.6266 -2.72339 -3.64122
RightFoot  -9.38689 -0.131835 3.98936
RightToes  5.38607e-012 1.2921e-014 -6.02303e-014
Spine  3.37937 -2.64798 -8.59915
Spine1  4.4912 -2.35398 -2.22927
HEad  6.61175 -31.8035 13.1775
LeftShoulder1  1.55917 -3.10744 -17.9599
LeftArm  -6.81006 -4.43699 -48.2255
LeftForeArm  37.3461 0.0366093 -10.5839
LeftHand  -0.0413273 4.39649 2.21185
RightShoulder  1.52172 1.50122 25.5826
RightArm  -24.8729 0.342623 59.8119
RightForeArm  69.7981 -1.28604 4.5028
RightHand  0.109149 -6.23935 -16.9415
LeftUpLeg  -12.7516 3.05666 3.63127
LeftLeg  22.4515 -1.59792 -0.141015
LeftFoot  -13.2829 -0.0251263 -6.17166
LeftToes  -4.79707e-012 -5.93756e-011 -7.55542e-012
2321
root  -54.4666 38.6538 -7.549 -176.678 45.3948 175.848
RightUpLeg  -31.5897 -11.5946 3.16412
RightLeg  38.7477 -4.26472 -3.92504
RightFoot  -9.35897 -0.124482 3.52055
RightToes  5.38607e-012 1.2921e-014 -6.02303e-014
Spine  2.96771 -2.71163 -7.96508
Spine1  4.75997 -2.20171 -2.42622
HEad  5.61763 -30.7215 13.662
LeftShoulder1  1.60302 -3.38792 -17.5669
LeftArm  -7.55139 -7.14943 -48.8759
LeftForeArm  36.8539 0.259511 -10.2782
LeftHand  -0.0437055 4.41655 2.36696
RightShoulder  1.50934 1.45506 25.6298
RightArm  -25.0024 0.663456 59.5374
RightForeArm  69.9354 -1.58271 4.34342
RightHand  0.102076 -6.18666 -17.0063
LeftUpLeg  -10.4552 4.42641 3.8869
LeftLeg  20.3471 -1.22866 0.126911
LeftFoot  -13.9048 -0.0694762 -6.81927
LeftToes  -4.79707e-012 -5.93756e-011 -7.55542e-012
2322
root  -53.5317 38.6371 -8.14353 -176.031 47.0011 175.44
RightUpLeg  -31.3555 -10.3542 4.52088
RightLeg  28.2943 -5.17427 -3.23523
RightFoot  -10.1561 -0.109911 3.95801
RightToes  5.38607e-012 1.2921e-014 -6.02303e-014
Spine  2.654 -2.90718 -7.85534
Spine1  4.70016 -2.27851 -2.37259
HEad  5.21454 -29.8734 13.7269
LeftShoulder1  1.60885 -3.46477 -17.3655
LeftArm  -7.55219 -9.26709 -49.5288
LeftForeArm  36.7241 -0.281742 -10.2358
LeftHand  -0.0457195 3.98025 2.02972
RightShoulder  1.51932 1.49411 25.5789
RightArm  -25.1373 0.871834 59.3417
RightForeArm  70.2842 -2.00459 4.17507
RightHand  0.112814 -6.26561 -16.9277
LeftUpLeg  -8.60506 5.33978 4.02884
LeftLeg  18.8312 -0.755837 0.295625
LeftFoot  -14.6245 -0.134057 -7.72237
LeftToes  -4.79707e-012 -5.93756e-011 -7.55542e-012
2323
root  -52.4926 38.5485 -8.70512 -175.671 48.328 174.772
RightUpLeg  -30.82 -9.91433 6.07364
RightLeg  19.1242 -5.56829 -2.34776
RightFoot  -10.4178 -0.111354 5.03268
RightToes  5.38607e-012 1.2921e-014 -6.02303e-014
Spine  2.40673 -3.14915 -8.03781
Spine1  4.63406 -2.45876 -2.2159
HEad  5.07816 -29.2183 13.752
LeftShoulder1  1.65951 -3.69771 -17.2935
LeftArm  -7.30208 -10.8743 -50.2514
LeftForeArm  36.8302 -1.20925 -10.2885
LeftHand  -0.0470642 3.66926 1.93613
RightShoulder  1.50691 1.4425 25.6635
RightArm  -25.647 0.847186 59.0793
RightForeArm  70.292 -2.02464 3.90315
RightHand  0.0838248 -6.08665 -16.4821
LeftUpLeg  -7.0264 5.17922 3.97546
LeftLeg  18.1148 0.274759 0.836531
LeftFoot  -15.2952 -0.233133 -9.38732
LeftToes  -4.79707e-012 -5.93756e-011 -7.55542e-012
2324
root  -51.3995 38.4863 -9.22131 -175.328 49.3846 174.337
RightUpLeg  -30.992 -10.0083 8.04379
RightLeg  14.394 -6.47221 -1.81883
RightFoot  -8.67644 -0.114333 2.38281
RightToes  5.38607e-012 1.2921e-014 -6.02303e-014
Spine  2.34776 -3.34797 -7.73122
Spine1  4.79802 -2.77866 -1.75339
HEad  4.96489 -28.758 13.6286
LeftShoulder1  1.7104 -3.90335 -17.3268
LeftArm  -6.68954 -11.9768 -51.1477
LeftForeArm  36.8624 -2.46285 -10.4648
LeftHand  -0.0491381 3.5652 1.99518
RightShoulder  1.48808 1.38782 25.6281
RightArm  -26.3328 0.670407 58.9711
RightForeArm  69.9776 -2.00254 3.57808
RightHand  0.0832119 -6.0797 -16.5327
LeftUpLeg  -5.51628 5.16618 4.35361
LeftLeg  17.838 0.727647 0.943566
LeftFoot  -15.3656 -0.303385 -11.2198
LeftToes  -4.79707e-012 -5.93756e-011 -7.55542e-012
2325
root  -50.2082 38.3181 -9.71429 -175.779 50.2096 173.397
RightUpLeg  -31.3058 -9.60361 9.39663
RightLeg  14.5537 -8.46104 -2.26964
RightFoot  -8.78944 -0.0789668 0.869319
RightToes  5.38607e-012 1.2921e-014 -6.02303e-014
Spine  2.6955 -3.51937 -7.67172
Spine1  4.83786 -3.131 -1.26568
HEad  4.9303 -28.6355 13.4066
LeftShoulder1  1.75273 -3.99979 -17.6159
LeftArm  -6.43028 -12.4926 -52.1796
LeftForeArm  36.8552 -3.88319 -10.4805
LeftHand  -0.0526564 3.25237 1.98209
RightShoulder  1.45288 1.27491 25.6363
RightArm  -26.7695 0.566433 58.749
RightForeArm  69.3926 -2.14893 3.35354
RightHand  0.0699803 -5.97572 -16.7543
LeftUpLeg  -4.75337 4.9569 4.72347
LeftLeg  20.0246 0.527732 0.680939
LeftFoot  -15.4054 -0.406461 -13.9888
LeftToes  -4.79707e-012 -5.93756e-011 -7.55542e-012
2326
root  -48.9163 38.0953 -10.1776 -176.333 50.9978 172.516
RightUpLeg  -31.6933 -7.89861 10.2781
RightLeg  18.4279 -8.75076 -3.44216
RightFoot  -9.16568 -0.0410134 -1.10817
RightToes  5.38607e-012 1.2921e-014 -6.02303e-014
Spine  3.11668 -3.52443 -6.88473
Spine1  4.90939 -3.2194 -1.24519
HEad  4.85246 -28.8551 13.2099
LeftShoulder1  1.77495 -3.95317 -18.1145
LeftArm  -5.41994 -12.8166 -53.1874
LeftForeArm  35.9086 -5.19276 -10.5728
LeftHand  -0.0567946 2.91869 1.99081
RightShoulder  1.39115 1.07375 25.6762
RightArm  -26.9749 0.372885 58.5556
RightForeArm  68.1999 -2.31272 3.27368
RightHand  0.052908 -5.85557 -16.7625
LeftUpLeg  -5.20674 6.45774 5.8349
LeftLeg  25.083 -2.23345 -0.790679
LeftFoot  -14.5489 -0.410761 -17.6443
LeftToes  -4.79707e-012 -5.93756e-011 -7.55542e-012
